<svg xmlns="http://www.w3.org/2000/svg" viewBox="375 2305 173.118 39.5">
  <defs>
    <style>
      .cls-1 {
        fill: #fff;
      }
    </style>
  </defs>
  <g id="group-11" transform="translate(375.001 2305.001)">
    <path id="path" class="cls-1" d="M264.8,216.9q-.207-.456-.512-1.217a3.593,3.593,0,0,1-.29-1.3,1.479,1.479,0,0,1,.332-1,1.383,1.383,0,0,1,1.051-.387,2.628,2.628,0,0,1,.733.083l.359.124q.926,2.53,2.088,5.074t2.323,4.908q1.161,2.364,2.212,4.452t1.853,3.733q1.383-2.53,2.682-5.35t2.419-5.267q1.092-2.447,1.811-4.147t.843-2.018a4.036,4.036,0,0,1,.719-1.2,1.382,1.382,0,0,1,1.092-.4,1.8,1.8,0,0,1,1.037.276,4.594,4.594,0,0,1,.484.359,25.073,25.073,0,0,1-.926,2.53q-.636,1.521-1.479,3.332t-1.8,3.788q-.954,1.977-1.922,3.885t-1.88,3.622q-.912,1.728-1.618,3.042H273.4q-.968-1.77-2.24-4.148t-2.489-4.783q-1.217-2.406-2.281-4.548t-1.6-3.5" transform="translate(-264 -203.244)"/>
    <path id="path-2" data-name="path" class="cls-1" d="M283.842,225.44a7.452,7.452,0,0,0,2.765,5.018,9.235,9.235,0,0,0,5.9,1.77,9.678,9.678,0,0,0,3.65-.608,19.726,19.726,0,0,0,2.295-1.078l1.217,2.018q-.332.207-1.009.567a11.68,11.68,0,0,1-1.645.691,15.441,15.441,0,0,1-2.2.567,14.617,14.617,0,0,1-2.765.235,13.481,13.481,0,0,1-4.369-.691,10.507,10.507,0,0,1-3.581-2.046,9.539,9.539,0,0,1-2.419-3.332,11.171,11.171,0,0,1-.885-4.59,12.22,12.22,0,0,1,.843-4.618,10.479,10.479,0,0,1,2.364-3.581,10.619,10.619,0,0,1,3.608-2.323,12.36,12.36,0,0,1,4.576-.83,12.65,12.65,0,0,1,3.691.484,7.425,7.425,0,0,1,2.641,1.383,5.683,5.683,0,0,1,1.576,2.088,6.387,6.387,0,0,1,.525,2.6,5.723,5.723,0,0,1-.567,2.558,5.1,5.1,0,0,1-1.935,2.018,11.267,11.267,0,0,1-3.664,1.383,28.772,28.772,0,0,1-5.793.484h-2.461q-1.12,0-2.336-.111m-.083-2.2q1.134.083,2.212.111h2.253a25.6,25.6,0,0,0,4.714-.359,10.176,10.176,0,0,0,2.931-.954,3.525,3.525,0,0,0,1.493-1.383,3.581,3.581,0,0,0,.415-1.687,3.775,3.775,0,0,0-.484-1.977,3.705,3.705,0,0,0-1.313-1.286,6.026,6.026,0,0,0-1.852-.691,10.687,10.687,0,0,0-2.129-.207,8.3,8.3,0,0,0-3.5.691,7.479,7.479,0,0,0-2.544,1.88,8.668,8.668,0,0,0-1.6,2.765,9.677,9.677,0,0,0-.608,3.166" transform="translate(-257.574 -203.389)"/>
    <path id="path-3" data-name="path" class="cls-1" d="M328.527,234.043V221.822a5.862,5.862,0,0,0-6.318-6.788,7.811,7.811,0,0,0-2.53.4,5.392,5.392,0,0,0-2.06,1.258,5.945,5.945,0,0,0-1.382,2.24,9.678,9.678,0,0,0-.5,3.3v11.807h-2.765V222.236a9.58,9.58,0,0,0-.512-3.3,6.083,6.083,0,0,0-1.382-2.24,5.226,5.226,0,0,0-2.046-1.258,7.824,7.824,0,0,0-2.53-.4,8.158,8.158,0,0,0-2.558.373,5.156,5.156,0,0,0-2.018,1.217,5.53,5.53,0,0,0-1.383,2.143,9.485,9.485,0,0,0-.47,3.166v12.1h-2.765v-13.41a8.406,8.406,0,0,1,.677-3.484,6.981,6.981,0,0,1,1.88-2.5,8.032,8.032,0,0,1,2.765-1.521,11.764,11.764,0,0,1,3.525-.512,10.535,10.535,0,0,1,4.853,1.092,7.825,7.825,0,0,1,3.373,3.373,8.3,8.3,0,0,1,3.346-3.332,9.9,9.9,0,0,1,4.742-1.134,11.917,11.917,0,0,1,3.456.484,7.8,7.8,0,0,1,2.765,1.479,6.912,6.912,0,0,1,1.853,2.461,8.3,8.3,0,0,1,.677,3.456v13.535Z" transform="translate(-251.259 -203.393)"/>
    <path id="path-4" data-name="path" class="cls-1" d="M327.865,237.749l.733.318a12.44,12.44,0,0,0,1.382.47,17.887,17.887,0,0,0,2.018.4,17.529,17.529,0,0,0,2.5.166,12.733,12.733,0,0,0,2.765-.318,6.483,6.483,0,0,0,2.489-1.134,5.971,5.971,0,0,0,1.8-2.295,8.9,8.9,0,0,0,.691-3.788v-.512a9.925,9.925,0,0,1-2.765,2.143,8.986,8.986,0,0,1-4.41,1.009,11.752,11.752,0,0,1-4.341-.774,10.01,10.01,0,0,1-3.415-2.2,9.884,9.884,0,0,1-2.24-3.387,11.6,11.6,0,0,1-.8-4.383,11.143,11.143,0,0,1,.871-4.424,10.672,10.672,0,0,1,2.378-3.5,10.963,10.963,0,0,1,3.65-2.323,12.552,12.552,0,0,1,4.659-.843,13.38,13.38,0,0,1,4.452.719,9.594,9.594,0,0,1,3.567,2.2,9.967,9.967,0,0,1,2.364,3.747,15.428,15.428,0,0,1,.843,5.35v6.069a16.052,16.052,0,0,1-.913,5.71,10.327,10.327,0,0,1-2.5,3.9,9.676,9.676,0,0,1-3.816,2.212,16.009,16.009,0,0,1-4.825.691,23.585,23.585,0,0,1-3.138-.194,22.906,22.906,0,0,1-2.433-.512,16.588,16.588,0,0,1-1.811-.553q-.719-.277-1.051-.442Zm8-7.59a6.567,6.567,0,0,0,2.613-.512,6.055,6.055,0,0,0,2.018-1.383,6.5,6.5,0,0,0,1.382-2.1,7.7,7.7,0,0,0,0-5.378,6.691,6.691,0,0,0-1.383-2.143,5.917,5.917,0,0,0-2.018-1.383,7.023,7.023,0,0,0-5.295,0,5.958,5.958,0,0,0-2.046,1.452,6.679,6.679,0,0,0-1.313,2.143,7.3,7.3,0,0,0-.47,2.613,6.705,6.705,0,0,0,1.77,4.866,6.263,6.263,0,0,0,4.728,1.839" transform="translate(-240.946 -203.477)"/>
    <path id="path-5" data-name="path" class="cls-1" d="M362.459,232.589c-.221.138-.581.332-1.051.594a10.786,10.786,0,0,1-1.8.719,20.265,20.265,0,0,1-2.489.594,17.61,17.61,0,0,1-3.1.249,13.2,13.2,0,0,1-4.41-.719,10.231,10.231,0,0,1-3.581-2.129,10.037,10.037,0,0,1-2.419-3.456,11.737,11.737,0,0,1-.885-4.7,11.987,11.987,0,0,1,.871-4.618,10.575,10.575,0,0,1,2.405-3.581,10.8,10.8,0,0,1,3.622-2.323,12.361,12.361,0,0,1,4.576-.829,12.1,12.1,0,0,1,3.871.567,8.973,8.973,0,0,1,2.848,1.521,6.207,6.207,0,0,1,2.337,4.908,6.387,6.387,0,0,1-.553,2.682,4.825,4.825,0,0,1-1.936,2.06,11.586,11.586,0,0,1-3.747,1.383,30.568,30.568,0,0,1-5.986.484h-3.152a5.24,5.24,0,0,0,2.088,3.47,8.129,8.129,0,0,0,4.991,1.382,11.24,11.24,0,0,0,2.018-.166,11.42,11.42,0,0,0,1.673-.415,11.975,11.975,0,0,0,1.258-.512l.774-.373Zm-14.793-10H351.4a19.2,19.2,0,0,0,3.747-.29,7.591,7.591,0,0,0,2.24-.76,2.365,2.365,0,0,0,1.051-1.051,3.069,3.069,0,0,0,.249-1.217,2.641,2.641,0,0,0-1.286-2.406,5.917,5.917,0,0,0-3.18-.8,6.456,6.456,0,0,0-2.765.553,5.944,5.944,0,0,0-1.977,1.452,6.636,6.636,0,0,0-1.244,2.088,7.548,7.548,0,0,0-.484,2.406" transform="translate(-233.886 -203.473)"/>
    <path id="path-6" data-name="path" class="cls-1" d="M359.594,220.514a7.631,7.631,0,0,1,2.378-6,9.553,9.553,0,0,1,6.595-2.129,10.756,10.756,0,0,1,4.327.733,2.392,2.392,0,0,1,1.659,2.254,2.681,2.681,0,0,1-.4,1.383,2.766,2.766,0,0,1-.65.843,11.562,11.562,0,0,0-1.77-.636,8.944,8.944,0,0,0-2.406-.29q-4.936,0-4.936,5.226v12.221H359.58Z" transform="translate(-227.44 -203.481)"/>
    <path id="path-7" data-name="path" class="cls-1" d="M374.363,205.94a2.876,2.876,0,1,1-2.06.843,2.765,2.765,0,0,1,2.06-.843m-2.406,11.724a2.032,2.032,0,0,1,.677-1.7,3.014,3.014,0,0,1,1.894-.525,4.853,4.853,0,0,1,1.383.194l.843.277v20.738h-4.811Z" transform="translate(-222.895 -205.94)"/>
    <path id="path-8" data-name="path" class="cls-1" d="M378.4,220.514a7.631,7.631,0,0,1,2.378-6,9.553,9.553,0,0,1,6.594-2.129,10.756,10.756,0,0,1,4.327.733,2.392,2.392,0,0,1,1.659,2.253,2.681,2.681,0,0,1-.4,1.382,2.765,2.765,0,0,1-.65.843,11.563,11.563,0,0,0-1.77-.636,8.944,8.944,0,0,0-2.406-.29q-4.936,0-4.936,5.226v12.221h-4.8Z" transform="translate(-220.245 -203.481)"/>
  </g>
</svg>
