<svg xmlns="http://www.w3.org/2000/svg" xmlns:xlink="http://www.w3.org/1999/xlink" version="1.1" x="0px" y="0px" viewBox="0 0 100 100" enable-background="new 0 0 100 100" xml:space="preserve"><path d="M52,19.4v-4.1h1c1.1,0,2-0.9,2-2s-0.9-2-2-2h-6c-1.1,0-2,0.9-2,2s0.9,2,2,2h1v4.1c-17.8,1-32,15.9-32,33.9  c0,12.8,7.2,24,17.7,29.8l-1.6,4.2c-0.4,1,0.1,2.2,1.2,2.6C33.5,90,33.8,90,34,90c0.8,0,1.6-0.5,1.9-1.3l1.4-3.9  c3.9,1.6,8.2,2.5,12.7,2.5c4.5,0,8.8-0.9,12.7-2.5l1.4,3.9c0.3,0.8,1.1,1.3,1.9,1.3c0.2,0,0.5,0,0.7-0.1c1-0.4,1.6-1.5,1.2-2.6  l-1.6-4.2C76.8,77.3,84,66.1,84,53.3C84,35.2,69.8,20.4,52,19.4z M50,53V27c4.7,0,9.2,1.3,13,3.5L50,53z"></path><path d="M75.8,11.9c-5.6-3.8-13.2-2.3-17,3.3l20.3,13.6C82.9,23.2,81.4,15.6,75.8,11.9z"></path><path d="M41.2,15.2c-3.8-5.6-11.4-7.1-17-3.3c-5.6,3.8-7.1,11.4-3.3,17L41.2,15.2z"></path></svg>