<svg xmlns="http://www.w3.org/2000/svg" viewBox="375.196 26 196.636 40">
  <defs>
    <style>
      .cls-1 {
        fill: #464a4a;
      }

      .cls-2 {
        fill: #3bd231;
      }
    </style>
  </defs>
  <g id="group-7" transform="translate(375.166 26.002)">
    <path id="path" class="cls-1" d="M81.236,206.7c-.11-.252-.252-.567-.41-.977a2.835,2.835,0,0,1-.236-.977,1.2,1.2,0,0,1,.268-.788,1.087,1.087,0,0,1,.882-.315,2.112,2.112,0,0,1,.6,0l.284.095q.74,2.032,1.67,4.064t1.859,3.938q.929,1.89,1.78,3.56t1.481,2.993q1.087-2.032,2.142-4.285t1.938-4.222q.882-1.953,1.449-3.308c.378-.9.614-1.433.677-1.575a3.229,3.229,0,0,1,.567-.961,1.15,1.15,0,0,1,.882-.315,1.433,1.433,0,0,1,.819.22l.394.284a20.18,20.18,0,0,1-.74,2.032q-.5,1.213-1.181,2.662t-1.433,3.04q-.756,1.575-1.575,3.15l-1.575,2.9q-.725,1.386-1.292,2.426h-2.41q-.772-1.418-1.8-3.324t-2-3.828q-.977-1.922-1.827-3.654a23.3,23.3,0,0,1-1.213-2.835" transform="translate(-80.56 -187.595)"/>
    <path id="path-2" data-name="path" class="cls-1" d="M94.812,213.6a5.97,5.97,0,0,0,2.158,4.017,7.388,7.388,0,0,0,4.726,1.418,7.7,7.7,0,0,0,2.914-.488,15.75,15.75,0,0,0,1.843-.866l.977,1.575-.8.457a9.561,9.561,0,0,1-1.323.551,12.6,12.6,0,0,1-1.764.457,11.718,11.718,0,0,1-2.158.189,10.774,10.774,0,0,1-3.5-.551,8.411,8.411,0,0,1-2.867-1.575,7.608,7.608,0,0,1-1.938-2.662,8.931,8.931,0,0,1-.709-3.686,9.782,9.782,0,0,1,.677-3.7,8.4,8.4,0,0,1,1.89-2.867A8.507,8.507,0,0,1,97.821,204a9.908,9.908,0,0,1,3.67-.662,10.082,10.082,0,0,1,2.961.394,5.955,5.955,0,0,1,2.111,1.1,4.569,4.569,0,0,1,1.26,1.67,5.135,5.135,0,0,1,.425,2.079,4.568,4.568,0,0,1-.457,2.048,4.1,4.1,0,0,1-1.575,1.575,9.01,9.01,0,0,1-2.93,1.071,22.966,22.966,0,0,1-4.647.394H96.687q-.9,0-1.874-.079m0-1.764q.914,0,1.78.079H98.4a20.47,20.47,0,0,0,3.781-.283,8.159,8.159,0,0,0,2.347-.756,2.819,2.819,0,0,0,1.2-1.118,2.851,2.851,0,0,0,.331-1.355,3.009,3.009,0,0,0-.394-1.575,2.961,2.961,0,0,0-1.055-1.024,4.725,4.725,0,0,0-1.481-.551,8.553,8.553,0,0,0-1.7-.173,6.7,6.7,0,0,0-2.8.551,6.017,6.017,0,0,0-2.048,1.575,6.994,6.994,0,0,0-1.276,2.158,7.718,7.718,0,0,0-.488,2.536" transform="translate(-73.785 -187.761)"/>
    <path id="path-3" data-name="path" class="cls-1" d="M128.968,220.49v-9.8a4.726,4.726,0,0,0-5.072-5.434,6.3,6.3,0,0,0-2.032.315,4.332,4.332,0,0,0-1.575,1.008,4.726,4.726,0,0,0-1.118,1.8,7.656,7.656,0,0,0-.41,2.646v9.451h-2.221v-9.451a7.656,7.656,0,0,0-.41-2.646,4.883,4.883,0,0,0-1.1-1.8,4.206,4.206,0,0,0-1.575-1.008,6.3,6.3,0,0,0-2.032-.315,6.521,6.521,0,0,0-2.048.3,4.128,4.128,0,0,0-1.575.977,4.426,4.426,0,0,0-1.055,1.717,7.576,7.576,0,0,0-.378,2.536v9.688H104V209.747a6.71,6.71,0,0,1,.536-2.788,5.592,5.592,0,0,1,1.575-2.016,6.458,6.458,0,0,1,2.268-1.213,9.45,9.45,0,0,1,2.82-.41,8.427,8.427,0,0,1,3.891.882,6.3,6.3,0,0,1,2.694,2.694,6.6,6.6,0,0,1,2.678-2.662,7.876,7.876,0,0,1,3.8-.914,9.546,9.546,0,0,1,2.772.394,6.3,6.3,0,0,1,2.237,1.181,5.562,5.562,0,0,1,1.481,1.969,6.616,6.616,0,0,1,.536,2.772v10.837Z" transform="translate(-67.095 -187.772)"/>
    <path id="path-4" data-name="path" class="cls-1" d="M125.8,223.5l.6.252a9.959,9.959,0,0,0,1.15.362,14.289,14.289,0,0,0,3.623.457,10.176,10.176,0,0,0,2.268-.252,5.2,5.2,0,0,0,1.985-.914,4.725,4.725,0,0,0,1.433-1.843,7.152,7.152,0,0,0,.551-3.04v-.41a7.987,7.987,0,0,1-2.253,1.717,7.213,7.213,0,0,1-3.529.8,9.45,9.45,0,0,1-3.481-.63,8.017,8.017,0,0,1-2.741-1.749,7.876,7.876,0,0,1-1.8-2.725,9.279,9.279,0,0,1-.646-3.513,8.931,8.931,0,0,1,.693-3.544,8.553,8.553,0,0,1,1.906-2.8,8.775,8.775,0,0,1,2.93-1.859,10.034,10.034,0,0,1,3.733-.677,10.741,10.741,0,0,1,3.56.567,7.687,7.687,0,0,1,2.851,1.748,7.876,7.876,0,0,1,1.89,3.009,12.334,12.334,0,0,1,.677,4.285v4.867a12.854,12.854,0,0,1-.725,4.568,8.285,8.285,0,0,1-2,3.15,7.766,7.766,0,0,1-3.056,1.78,12.823,12.823,0,0,1-3.859.551,18.775,18.775,0,0,1-4.521-.52,13.265,13.265,0,0,1-1.449-.441l-.851-.347Zm6.411-6.08a5.276,5.276,0,0,0,2.1-.41,4.835,4.835,0,0,0,1.575-1.118,5.183,5.183,0,0,0,1.071-1.685,6.143,6.143,0,0,0,0-4.3,5.34,5.34,0,0,0-1.071-1.717,4.726,4.726,0,0,0-1.575-1.134,5.64,5.64,0,0,0-4.237,0,4.727,4.727,0,0,0-1.575,1.166,5.355,5.355,0,0,0-1.055,1.717,5.861,5.861,0,0,0-.378,2.1,5.387,5.387,0,0,0,1.418,3.906,5.009,5.009,0,0,0,3.781,1.465" transform="translate(-56.189 -187.881)"/>
    <path id="path-5" data-name="path" class="cls-1" d="M151.77,219.332l-.851.473a8.49,8.49,0,0,1-1.433.583,16.2,16.2,0,0,1-1.985.473,14.083,14.083,0,0,1-2.489.2,10.586,10.586,0,0,1-3.528-.567,8.192,8.192,0,0,1-2.867-1.7,8.018,8.018,0,0,1-1.937-2.772,9.451,9.451,0,0,1-.709-3.765,9.577,9.577,0,0,1,.693-3.7,8.474,8.474,0,0,1,1.922-2.867,8.664,8.664,0,0,1,2.9-1.859,9.891,9.891,0,0,1,3.67-.662,9.7,9.7,0,0,1,3.15.457,7.213,7.213,0,0,1,2.284,1.213,4.978,4.978,0,0,1,1.874,3.938,5.119,5.119,0,0,1-.441,2.142,3.891,3.891,0,0,1-1.575,1.654,9.31,9.31,0,0,1-3.009,1.087,24.544,24.544,0,0,1-4.726.394h-2.52a4.19,4.19,0,0,0,1.67,2.788,6.521,6.521,0,0,0,4,1.071,9.153,9.153,0,0,0,2.961-.473,9.872,9.872,0,0,0,1.008-.41l.63-.3Zm-11.846-8h2.9a15.294,15.294,0,0,0,3.009-.236,6.082,6.082,0,0,0,1.8-.6,1.906,1.906,0,0,0,.851-.851,2.488,2.488,0,0,0,.2-.977,2.127,2.127,0,0,0-1.024-1.922,4.726,4.726,0,0,0-2.552-.646,5.183,5.183,0,0,0-2.19.441,4.726,4.726,0,0,0-1.575,1.166,5.355,5.355,0,0,0-.992,1.67,6.033,6.033,0,0,0-.394,1.922" transform="translate(-48.706 -187.859)"/>
    <path id="path-6" data-name="path" class="cls-1" d="M147.764,209.68a6.127,6.127,0,0,1,1.906-4.8,7.655,7.655,0,0,1,5.277-1.7,8.631,8.631,0,0,1,3.465.6,1.922,1.922,0,0,1,1.339,1.812,2.142,2.142,0,0,1-.315,1.118,2.22,2.22,0,0,1-.52.677,9.448,9.448,0,0,0-1.418-.5,7.231,7.231,0,0,0-1.922-.236q-3.954,0-3.954,4.19v9.8H147.78Z" transform="translate(-41.927 -187.863)"/>
    <path id="path-7" data-name="path" class="cls-1" d="M158.4,198.64a2.3,2.3,0,1,1-1.575.677,2.252,2.252,0,0,1,1.575-.677m-1.922,9.451a1.575,1.575,0,0,1,.536-1.37,2.41,2.41,0,0,1,1.575-.425,3.877,3.877,0,0,1,1.118.158l.677.221v16.571h-3.844Z" transform="translate(-37.094 -190.464)"/>
    <path id="path-8" data-name="path" class="cls-1" d="M161,209.68a6.127,6.127,0,0,1,1.906-4.8,7.656,7.656,0,0,1,5.277-1.7,8.631,8.631,0,0,1,3.465.6,1.922,1.922,0,0,1,1.339,1.812,2.142,2.142,0,0,1-.315,1.118,2.22,2.22,0,0,1-.52.677,9.446,9.446,0,0,0-1.418-.5,7.215,7.215,0,0,0-1.922-.236q-3.954,0-3.954,4.19v9.8H161Z" transform="translate(-34.311 -187.863)"/>
    <path id="path-9" data-name="path" class="cls-2" d="M218.908,200.618l-5.844-5.891a4.348,4.348,0,0,0-6.159,0l-16.492,16.445,2.221,2.237a3.15,3.15,0,0,1,.866,2.394v6.191a2.741,2.741,0,0,1-3.15,2.757h0a2.741,2.741,0,0,1-3.15-2.757v-4.048a1.465,1.465,0,0,0-1.575-1.465,1.449,1.449,0,0,0-.945.283l-.236.221-3.15,3.15a4.363,4.363,0,0,0,0,6.143h0l5.907,5.891a4.348,4.348,0,0,0,6.159,0l25.392-25.392a4.348,4.348,0,0,0,0-6.159" transform="translate(-23.363 -193.45)"/>
    <path id="path-10" data-name="path" class="cls-1" d="M196.842,210.567l-2.221-2.237h0L186,199.667a4.521,4.521,0,0,0-6.3,0l-5.8,5.781a4.348,4.348,0,0,0,0,6.159l11.72,11.735h0l-.221-.252-.079-.094-.189-.268v-.079l-.189-.315h0l-.173-.362h0a4.348,4.348,0,0,1,.961-4.726l3.15-3.15.221-.221a1.575,1.575,0,0,1,2.457,1.166v4.033a2.741,2.741,0,0,0,3.15,2.757h0a2.741,2.741,0,0,0,3.15-2.757v-6.191a3.15,3.15,0,0,0-.866-2.394" transform="translate(-27.619 -190.608)"/>
  </g>
</svg>
